<?xml version="1.0" encoding="UTF-8"?> <svg xmlns="http://www.w3.org/2000/svg" viewBox="0 0 59.05 54.96"><defs><style>.cls-1{fill:#004adb;}.cls-2{fill:#f6731f;}</style></defs><g id="Warstwa_1" data-name="Warstwa 1"><path class="cls-1" d="M26.34,29.46a.5.5,0,0,1-.3-.9l5.16-3.9a.51.51,0,0,1,.7.1.5.5,0,0,1-.09.7l-5.17,3.9A.47.47,0,0,1,26.34,29.46Z"></path><path class="cls-2" d="M17.32,33.08A.54.54,0,0,1,17,33L4.74,25a.5.5,0,0,1-.23-.42V19.93a.5.5,0,0,1,1,0V24.3l11.31,7.36V22.37l-6.54-4.26a.5.5,0,0,1,.54-.84l6.77,4.4a.52.52,0,0,1,.23.42V32.58a.52.52,0,0,1-.27.44A.46.46,0,0,1,17.32,33.08Z"></path><path class="cls-2" d="M21.42,34.37h-4.1a.5.5,0,0,1-.5-.5V21.22a.5.5,0,0,1,.5-.5h4.1a.51.51,0,0,1,.5.5V33.87A.51.51,0,0,1,21.42,34.37Zm-3.6-1h3.1V21.72h-3.1Z"></path><path class="cls-2" d="M32.13,36.36c-.15,0-.21.08-.3,0l-2.75-3.43a.5.5,0,0,1,.79-.62l2.74,3.42c.17.22,0,.39-.17.56A.51.51,0,0,1,32.13,36.36Z"></path><path class="cls-1" d="M41.74,30.71a.52.52,0,0,1-.5-.5V19.72a.5.5,0,0,1,.22-.42l12.31-8a.52.52,0,0,1,.51,0,.51.51,0,0,1,.26.44v5a.5.5,0,0,1-.5.5.5.5,0,0,1-.5-.5V12.63L42.24,20v9.29l4.57-3a.5.5,0,0,1,.69.14.51.51,0,0,1-.15.7L42,30.62A.46.46,0,0,1,41.74,30.71Z"></path><path class="cls-2" d="M28.58,36.47a.51.51,0,0,1-.39-.19L26,33.49a.5.5,0,1,1,.78-.63L29,35.66a.5.5,0,0,1-.08.7A.51.51,0,0,1,28.58,36.47Z"></path><path class="cls-1" d="M41.74,32.08H37.63a.5.5,0,0,1-.5-.5V18.93a.51.51,0,0,1,.5-.5h4.11a.51.51,0,0,1,.5.5V31.58A.5.5,0,0,1,41.74,32.08Zm-3.61-1h3.11V19.43H38.13Z"></path><path class="cls-1" d="M34.9,34.07a.47.47,0,0,1-.35-.15l-5.91-6-2.11,1.5a.53.53,0,0,1-.44.07.49.49,0,0,1-.32-.31l-1.06-3a.48.48,0,0,1,.09-.5l4.92-5.58A.53.53,0,0,1,30.1,20h7.53a.5.5,0,0,1,.5.5V30.91a.47.47,0,0,1-.15.35l-2.73,2.67A.52.52,0,0,1,34.9,34.07Zm-6.2-7.32a.51.51,0,0,1,.36.15l5.85,6,2.22-2.16V21H30.32l-4.57,5.18.74,2.06,1.92-1.36A.52.52,0,0,1,28.7,26.75Z"></path><path class="cls-1" d="M43.55,21.46a.5.5,0,0,1-.26-.93l7.15-4.31a.52.52,0,0,1,.69.17.5.5,0,0,1-.17.69l-7.15,4.3A.5.5,0,0,1,43.55,21.46Z"></path><path class="cls-2" d="M15.36,28.91a.59.59,0,0,1-.26-.07L8,24.54a.5.5,0,0,1,.51-.86L15.62,28a.51.51,0,0,1,.17.69A.52.52,0,0,1,15.36,28.91Z"></path><path class="cls-1" d="M40.55,17a.46.46,0,0,1-.35-.14c-.35-.35-.71-.67-1.08-1a.5.5,0,0,1-.07-.7.5.5,0,0,1,.71-.07c.39.32.78.68,1.14,1a.5.5,0,0,1,0,.71A.47.47,0,0,1,40.55,17Z"></path><path class="cls-1" d="M21.05,14.88a.48.48,0,0,1-.42-.23.49.49,0,0,1,.15-.69,15.78,15.78,0,0,1,3-1.51.5.5,0,0,1,.65.29.52.52,0,0,1-.3.65,14.94,14.94,0,0,0-2.83,1.41A.47.47,0,0,1,21.05,14.88Zm15.66-.69a.59.59,0,0,1-.23,0A15.9,15.9,0,0,0,33.53,13a.5.5,0,0,1,.26-1,16.12,16.12,0,0,1,3.15,1.24.5.5,0,0,1,.21.67A.48.48,0,0,1,36.71,14.19ZM27.15,12.6a.5.5,0,0,1-.07-1,16.64,16.64,0,0,1,3.38-.14.5.5,0,1,1-.06,1,16.14,16.14,0,0,0-3.18.14Z"></path><path class="cls-1" d="M17.46,18a.5.5,0,0,1-.38-.82c.33-.39.68-.78,1-1.14a.5.5,0,0,1,.71,0,.49.49,0,0,1,0,.7,14.25,14.25,0,0,0-1,1.07A.49.49,0,0,1,17.46,18Z"></path><path class="cls-2" d="M18.47,39.24a.5.5,0,0,1-.35-.15c-.37-.37-.72-.75-1.05-1.13a.52.52,0,0,1,.07-.71.49.49,0,0,1,.7.07,12.2,12.2,0,0,0,1,1.06.51.51,0,0,1,0,.71A.51.51,0,0,1,18.47,39.24Z"></path><path class="cls-2" d="M29.21,43.75h0a16.37,16.37,0,0,1-3.05-.34.5.5,0,0,1,.2-1,15.29,15.29,0,0,0,2.87.32.5.5,0,0,1,0,1Zm3-.23a.51.51,0,0,1-.49-.41.5.5,0,0,1,.41-.58,15.1,15.1,0,0,0,2.78-.77.5.5,0,1,1,.36.94,16.12,16.12,0,0,1-3,.81Zm-8.76-1a.45.45,0,0,1-.2,0A15.69,15.69,0,0,1,20.5,41a.5.5,0,0,1-.13-.7.49.49,0,0,1,.69-.13,15.11,15.11,0,0,0,2.54,1.36.52.52,0,0,1,.27.66A.51.51,0,0,1,23.41,42.53Zm14.31-1.12a.5.5,0,0,1-.43-.24.51.51,0,0,1,.16-.69,14.94,14.94,0,0,0,2.3-1.74.5.5,0,0,1,.71,0,.5.5,0,0,1,0,.7A15.66,15.66,0,0,1,38,41.33.5.5,0,0,1,37.72,41.41Z"></path><path class="cls-2" d="M42.09,37.37a.53.53,0,0,1-.3-.09.5.5,0,0,1-.1-.7c.28-.39.55-.8.8-1.21a.49.49,0,0,1,.69-.17.5.5,0,0,1,.17.68,13.77,13.77,0,0,1-.86,1.29A.51.51,0,0,1,42.09,37.37Z"></path><path class="cls-2" d="M35.25,33.93a.51.51,0,0,1-.7,0l-.32-.32L32,35.51H24.76L21.92,31.9V24.77h3.72l.86-1H21.41a.5.5,0,0,0-.35.14.53.53,0,0,0-.15.36v7.81a.5.5,0,0,0,.1.31l3.11,3.93a.49.49,0,0,0,.39.19h7.65a.51.51,0,0,0,.33-.13l2.78-2.44s0,0,0,0Z"></path></g></svg> 