<?xml version="1.0" encoding="UTF-8"?> <svg xmlns="http://www.w3.org/2000/svg" viewBox="0 0 57.98 54.96"><defs><style>.cls-1{fill:#004adb;}.cls-2{fill:#f6731f;}</style></defs><g id="Layer_3" data-name="Layer 3"><path class="cls-1" d="M42.31,19.59H6.69a.5.5,0,0,1-.5-.5.5.5,0,0,1,.5-.5H42.31a.51.51,0,0,1,.5.5A.5.5,0,0,1,42.31,19.59Z"></path><circle class="cls-2" cx="10.23" cy="15.96" r="1"></circle><circle class="cls-2" cx="14.49" cy="15.96" r="1"></circle><circle class="cls-2" cx="18.46" cy="15.96" r="1"></circle><path class="cls-1" d="M10.73,28h4.86c.12,0,.22.18.22.42s-.1.42-.22.42H10.73c-.12,0-.22-.19-.22-.42s.1-.42.22-.42"></path><path class="cls-1" d="M10.73,25.72h7.51c.13,0,.22.19.22.43s-.09.42-.22.42H10.73c-.12,0-.22-.19-.22-.42s.1-.43.22-.43"></path><path class="cls-1" d="M10.73,23.6H16c.12,0,.22.19.22.42s-.1.43-.22.43H10.73c-.12,0-.22-.19-.22-.43s.1-.42.22-.42"></path><path class="cls-2" d="M10.73,34.51h4.86c.12,0,.22.19.22.42s-.1.43-.22.43H10.73c-.12,0-.22-.19-.22-.43s.1-.42.22-.42"></path><path class="cls-1" d="M10.73,32.29h7.51c.13,0,.22.19.22.42s-.09.43-.22.43H10.73c-.12,0-.22-.19-.22-.43s.1-.42.22-.42"></path><path class="cls-2" d="M10.73,30.17H16c.12,0,.22.19.22.42s-.1.42-.22.42H10.73c-.12,0-.22-.19-.22-.42s.1-.42.22-.42"></path><path class="cls-1" d="M33.52,37.93a10.34,10.34,0,0,1-1.11-.07.67.67,0,0,1-.62-.67v-1a.47.47,0,0,0-.36-.41,5.84,5.84,0,0,1-1-.38.63.63,0,0,0-.64.09L29,36.2a.74.74,0,0,1-.86.07,9,9,0,0,1-1.6-1.45.63.63,0,0,1-.17-.44.64.64,0,0,1,.21-.48l.8-.73a.33.33,0,0,0,.08-.44,6.86,6.86,0,0,1-.43-.95.51.51,0,0,0-.5-.31H25.38a.7.7,0,0,1-.7-.57,7.49,7.49,0,0,1,0-2.06.72.72,0,0,1,.71-.6h1.11a.51.51,0,0,0,.49-.3,7,7,0,0,1,.44-1,.36.36,0,0,0-.09-.47l-.78-.7a.68.68,0,0,1,0-1,9.11,9.11,0,0,1,1.55-1.39.69.69,0,0,1,.91.07l.77.68a.61.61,0,0,0,.65.09,8.21,8.21,0,0,1,1-.38.46.46,0,0,0,.36-.4v-1a.69.69,0,0,1,.63-.68,9.52,9.52,0,0,1,2.2,0,.69.69,0,0,1,.63.68v1a.43.43,0,0,0,.35.39,8.43,8.43,0,0,1,1,.39.65.65,0,0,0,.67-.09l.77-.7a.72.72,0,0,1,.86-.08,8.38,8.38,0,0,1,1.61,1.45.61.61,0,0,1,.16.51.66.66,0,0,1-.26.46l-.74.68a.36.36,0,0,0-.09.46q.09.15.18.33l-.9.44c0-.1-.09-.19-.14-.27A1.36,1.36,0,0,1,39,25.78l.54-.49a7.07,7.07,0,0,0-1-.88L38,25a1.65,1.65,0,0,1-1.74.25,8.79,8.79,0,0,0-.9-.34,1.42,1.42,0,0,1-1.07-1.35v-.71a8.9,8.9,0,0,0-1.46,0v.71a1.46,1.46,0,0,1-1.08,1.36,7.31,7.31,0,0,0-.9.33A1.63,1.63,0,0,1,29.08,25l-.62-.55a7.51,7.51,0,0,0-1,.88l.54.49a1.37,1.37,0,0,1,.28,1.71,4.46,4.46,0,0,0-.37.79,1.51,1.51,0,0,1-1.43,1h-.86a8.42,8.42,0,0,0,0,1.23h.86a1.49,1.49,0,0,1,1.44,1,4.64,4.64,0,0,0,.36.78A1.35,1.35,0,0,1,28,33.92l-.54.48a7.75,7.75,0,0,0,1,.9l.61-.56a1.61,1.61,0,0,1,1.06-.39,1.51,1.51,0,0,1,.69.15,4.57,4.57,0,0,0,.88.32,1.46,1.46,0,0,1,1.08,1.37v.7a8.9,8.9,0,0,0,1.46,0v-.7a1.44,1.44,0,0,1,1.07-1.36,5.28,5.28,0,0,0,.89-.34,1.66,1.66,0,0,1,1.75.25l.61.56a7.83,7.83,0,0,0,1-.89L39,33.92a1.34,1.34,0,0,1-.29-1.69,5.89,5.89,0,0,0,.37-.8,1.5,1.5,0,0,1,1.45-1h1.11v1H40.56a.5.5,0,0,0-.51.31,6.26,6.26,0,0,1-.44.94.37.37,0,0,0,.08.45l.79.72a.68.68,0,0,1,.23.45.65.65,0,0,1-.17.48A8.34,8.34,0,0,1,39,36.25a.64.64,0,0,1-.41.13.75.75,0,0,1-.45-.16l-.81-.74a.66.66,0,0,0-.65-.08,6.18,6.18,0,0,1-1,.39.44.44,0,0,0-.35.4v1a.67.67,0,0,1-.64.67A9.81,9.81,0,0,1,33.52,37.93Zm1-1.06h0Zm-2,0h0Zm5.88-1.44h0Zm1.42-.81h0Zm-12.58-.48,0,0Zm12.56,0h0ZM27.27,25.51l0,0A0,0,0,0,0,27.27,25.51Zm12.54-.44s0,0,0,0Zm-12.6,0v0Zm1.08-.8h0Zm10.47,0,0,0Zm-4.25-1.41h0Zm-2,0h0Zm1,10.66a4,4,0,0,1-.69-.05,4.13,4.13,0,0,1-2.12-1,3.51,3.51,0,0,1-1.18-2.59h1a2.53,2.53,0,0,0,.85,1.85,3.11,3.11,0,0,0,1.61.74l-.08.5.08-.5a3.23,3.23,0,0,0,2.66-.75,2.41,2.41,0,0,0,0-3.69,3.35,3.35,0,0,0-4.27,0l-.67-.74a4.37,4.37,0,0,1,5.61,0,3.41,3.41,0,0,1,0,5.18A4.22,4.22,0,0,1,33.52,33.49Z"></path><path class="cls-2" d="M46.73,27.71a.07.07,0,0,0-.07-.06h-.37a.35.35,0,0,1-.34-.21,1.6,1.6,0,0,0-.13-.3.28.28,0,0,1,.06-.36l.27-.24a.06.06,0,0,0,0-.08,2.44,2.44,0,0,0-.5-.46h0l0,0-.27.24a.38.38,0,0,1-.4.05l-.33-.12a.32.32,0,0,1-.24-.3v-.33a.07.07,0,0,0-.06-.07,4.21,4.21,0,0,0-.71,0,.07.07,0,0,0-.06.07v.33a.32.32,0,0,1-.24.3l-.33.12a.4.4,0,0,1-.41-.05L42.25,26l0,0h0a2.44,2.44,0,0,0-.5.46,0,0,0,0,0,0,.08l.27.24a.29.29,0,0,1,.06.36,2,2,0,0,0-.14.3.33.33,0,0,1-.33.21h-.37a.07.07,0,0,0-.07.06,2.29,2.29,0,0,0,0,.64.07.07,0,0,0,.07.06h.37a.33.33,0,0,1,.33.21,2,2,0,0,0,.14.3.29.29,0,0,1-.06.36l-.27.24a0,0,0,0,0,0,.08,2.4,2.4,0,0,0,.5.45l0,0,0,0,.26-.24a.38.38,0,0,1,.25-.09.45.45,0,0,1,.16,0,1.61,1.61,0,0,0,.33.12.34.34,0,0,1,.24.3v.34a.06.06,0,0,0,.06.06,2.81,2.81,0,0,0,.71,0,.06.06,0,0,0,.06-.06v-.34a.34.34,0,0,1,.24-.3,2.19,2.19,0,0,0,.33-.12.39.39,0,0,1,.4.06l.27.24,0,0s0,0,0,0a2.4,2.4,0,0,0,.5-.45.06.06,0,0,0,0-.08l-.27-.24a.28.28,0,0,1-.06-.36,1.94,1.94,0,0,0,.13-.3.35.35,0,0,1,.34-.21h.37a.07.07,0,0,0,.07-.06A2.29,2.29,0,0,0,46.73,27.71Zm-2.09,1a1.12,1.12,0,0,1-.74.27,1.14,1.14,0,0,1-.74-.27.9.9,0,0,1,0-1.34,1.09,1.09,0,0,1,.74-.27,1.07,1.07,0,0,1,.74.27.88.88,0,0,1,0,1.34Z"></path><path class="cls-1" d="M48.37,42.66H9.61a3.93,3.93,0,0,1-3.92-3.93V16.22A3.93,3.93,0,0,1,9.61,12.3H32.07a.5.5,0,0,1,0,1H9.61a2.92,2.92,0,0,0-2.92,2.92V38.73a2.93,2.93,0,0,0,2.92,2.93H48.37a2.93,2.93,0,0,0,2.92-2.93V16.22a2.92,2.92,0,0,0-2.92-2.92h-3a.5.5,0,0,1,0-1h3a3.93,3.93,0,0,1,3.92,3.92V38.73A3.93,3.93,0,0,1,48.37,42.66Z"></path></g></svg> 