<?xml version="1.0" encoding="UTF-8"?> <svg xmlns="http://www.w3.org/2000/svg" viewBox="0 0 59.05 54.96"><defs><style>.cls-1{fill:#004adb;}.cls-2{fill:#f6731f;}</style></defs><g id="Warstwa_1" data-name="Warstwa 1"><path class="cls-1" d="M28.51,45.2a2.93,2.93,0,1,1,2.93-2.93A2.93,2.93,0,0,1,28.51,45.2Zm0-4.86a1.93,1.93,0,1,0,1.93,1.93A1.94,1.94,0,0,0,28.51,40.34Z"></path><path class="cls-1" d="M45.28,39a2.93,2.93,0,1,1,2.93-2.93A2.93,2.93,0,0,1,45.28,39Zm0-4.86a1.93,1.93,0,1,0,1.93,1.93A1.93,1.93,0,0,0,45.28,34.18Z"></path><path class="cls-1" d="M13.77,22.64a2.93,2.93,0,1,1,2.92-2.93A2.93,2.93,0,0,1,13.77,22.64Zm0-4.86a1.93,1.93,0,1,0,1.92,1.93A1.93,1.93,0,0,0,13.77,17.78Z"></path><path class="cls-1" d="M28.51,30.84a2.93,2.93,0,1,1,2.93-2.93A2.93,2.93,0,0,1,28.51,30.84Zm0-4.86a1.93,1.93,0,1,0,1.93,1.93A1.94,1.94,0,0,0,28.51,26Z"></path><path class="cls-1" d="M29.37,16.48a2.93,2.93,0,1,1,2.93-2.93A2.93,2.93,0,0,1,29.37,16.48Zm0-4.86a1.93,1.93,0,1,0,1.93,1.93A1.93,1.93,0,0,0,29.37,11.62Z"></path><path class="cls-2" d="M43.68,41.09h-.11l-3.37-.73a.5.5,0,1,1,.22-1l3.37.73a.5.5,0,0,1-.11,1Z"></path><path class="cls-2" d="M43,44.45h-.11a.5.5,0,0,1-.38-.6l.73-3.36a.5.5,0,1,1,1,.22l-.73,3.35A.5.5,0,0,1,43,44.45Z"></path><path class="cls-2" d="M13.4,25.53a.5.5,0,0,1-.11-1l3.37-.73a.5.5,0,0,1,.22,1l-3.37.73Z"></path><path class="cls-2" d="M14.13,28.89a.51.51,0,0,1-.49-.39l-.73-3.36a.5.5,0,1,1,1-.22l.73,3.36a.5.5,0,0,1-.38.6Z"></path><path class="cls-2" d="M35.59,30.84a.52.52,0,0,1-.33-.12l-2.57-2.3a.5.5,0,0,1,0-.71.5.5,0,0,1,.7,0L35.93,30a.51.51,0,0,1,0,.71A.51.51,0,0,1,35.59,30.84Z"></path><path class="cls-2" d="M33,28.54a.49.49,0,0,1-.37-.83l2.29-2.56a.5.5,0,0,1,.71,0,.51.51,0,0,1,0,.71l-2.3,2.56A.47.47,0,0,1,33,28.54Z"></path><path class="cls-2" d="M22.22,15.62a.52.52,0,0,1-.38-.17.5.5,0,0,1,0-.7l2.58-2.3a.49.49,0,0,1,.7,0,.48.48,0,0,1,0,.7l-2.57,2.3A.48.48,0,0,1,22.22,15.62Z"></path><path class="cls-2" d="M24.79,13.32a.5.5,0,0,1-.37-.17l-2.29-2.56a.5.5,0,0,1,.74-.66l2.29,2.56a.48.48,0,0,1,0,.7A.46.46,0,0,1,24.79,13.32Z"></path><path class="cls-2" d="M14,15.62a.51.51,0,0,1-.36-.15.5.5,0,0,1,0-.7A7.93,7.93,0,0,1,16.31,13a.5.5,0,0,1,.38.92,7.24,7.24,0,0,0-2.32,1.54A.49.49,0,0,1,14,15.62Zm8.41-2.2h-3a.5.5,0,0,1-.5-.5.5.5,0,0,1,.5-.5h3a.5.5,0,0,1,.5.5A.5.5,0,0,1,22.43,13.42Z"></path><path class="cls-2" d="M23.64,28.54h0l-3-.09a.49.49,0,0,1-.48-.51.5.5,0,0,1,.5-.49h0l3,.09a.5.5,0,0,1,0,1Zm-6-.31h-.11a8,8,0,0,1-2.9-1.31.5.5,0,0,1,.58-.81,7,7,0,0,0,2.54,1.14.5.5,0,0,1,.38.6A.51.51,0,0,1,17.66,28.23Z"></path><path class="cls-2" d="M43.68,31.58a.51.51,0,0,1-.41-.21,6.94,6.94,0,0,0-2-1.91.48.48,0,0,1-.16-.68.5.5,0,0,1,.69-.17,8.14,8.14,0,0,1,2.31,2.18.5.5,0,0,1-.12.7A.52.52,0,0,1,43.68,31.58Zm-5-3.08h-.08a6.47,6.47,0,0,0-1.08-.09H35.72a.5.5,0,0,1-.5-.5.51.51,0,0,1,.5-.5h1.84a8.52,8.52,0,0,1,1.24.1.5.5,0,0,1-.08,1Z"></path><path class="cls-2" d="M36.33,43.24h-3a.5.5,0,0,1-.5-.5.5.5,0,0,1,.5-.5h3a.5.5,0,0,1,.5.5A.5.5,0,0,1,36.33,43.24Zm3-.21a.5.5,0,0,1-.11-1,7,7,0,0,0,2.52-1.18.5.5,0,0,1,.59.81A7.91,7.91,0,0,1,39.43,43Z"></path></g></svg> 