<?xml version="1.0" encoding="UTF-8"?> <svg xmlns="http://www.w3.org/2000/svg" viewBox="0 0 59.05 54.96"><defs><style>.cls-1{fill:#f6731f;}.cls-2{fill:#004adb;}</style></defs><g id="Warstwa_1" data-name="Warstwa 1"><path class="cls-1" d="M18.12,17.53H23.7c.13,0,.24.2.24.45s-.11.45-.24.45H18.12c-.13,0-.23-.2-.23-.45s.1-.45.23-.45"></path><path class="cls-1" d="M35.35,19.5h5.58c.13,0,.23.2.23.45s-.1.45-.23.45H35.35c-.13,0-.24-.2-.24-.45s.11-.45.24-.45"></path><path class="cls-1" d="M18.12,34.92H23.7c.13,0,.24.2.24.45s-.11.45-.24.45H18.12c-.13,0-.23-.2-.23-.45s.1-.45.23-.45"></path><path class="cls-2" d="M23.94,24.48h-9a.5.5,0,0,1-.5-.5V21a.5.5,0,0,1,.5-.5.5.5,0,0,1,.5.5v2.53h8.31l2.68-2.68V12.49h-11v3.14a.51.51,0,0,1-.5.5.5.5,0,0,1-.5-.5V12a.5.5,0,0,1,.5-.5h12a.5.5,0,0,1,.5.5v9a.47.47,0,0,1-.15.35l-3,3A.47.47,0,0,1,23.94,24.48Z"></path><path class="cls-2" d="M41.17,26.45h-9a.5.5,0,0,1-.5-.5V14a.5.5,0,0,1,.5-.5.5.5,0,0,1,.5.5V25.45H41l2.68-2.68V18.44a.5.5,0,0,1,.5-.5.5.5,0,0,1,.5.5V23a.51.51,0,0,1-.15.35l-3,3A.47.47,0,0,1,41.17,26.45Z"></path><path class="cls-2" d="M44.14,18.94a.5.5,0,0,1-.5-.5v-4H40.83a.51.51,0,0,1-.5-.5.5.5,0,0,1,.5-.5h3.31a.5.5,0,0,1,.5.5v4.48A.51.51,0,0,1,44.14,18.94Z"></path><path class="cls-2" d="M23.94,41.5h-9a.5.5,0,0,1-.5-.5V33.22a.5.5,0,0,1,.5-.5.5.5,0,0,1,.5.5V40.5h8.31l2.68-2.68V29.51H19.35a.51.51,0,0,1-.5-.5.5.5,0,0,1,.5-.5h7.56a.5.5,0,0,1,.5.5v9a.47.47,0,0,1-.15.35l-3,3A.47.47,0,0,1,23.94,41.5Z"></path><path class="cls-1" d="M38.79,43.47H32.14a.51.51,0,0,1-.5-.5V31a.51.51,0,0,1,.5-.5h12a.51.51,0,0,1,.5.5v9a.51.51,0,0,1-.15.35l-2.05,2a.5.5,0,0,1-.71,0,.51.51,0,0,1,0-.71l1.91-1.9V31.47h-11v11h6.15a.5.5,0,0,1,.5.5A.5.5,0,0,1,38.79,43.47Z"></path><polygon class="cls-2" points="37.86 32.74 35.44 37.48 37.86 37.48 37.86 41.2 40.83 36.09 38.14 36.09 37.86 32.74"></polygon></g></svg> 