<?xml version="1.0" encoding="UTF-8"?> <svg xmlns="http://www.w3.org/2000/svg" viewBox="0 0 59.05 54.96"><defs><style>.cls-1{fill:#004adb;}.cls-2{fill:#f37224;}.cls-3{fill:#f6731f;}</style></defs><g id="Layer_3" data-name="Layer 3"><path class="cls-1" d="M34.23,35.59H29.11c-.07,0-.14-.19-.14-.42s.07-.42.14-.42h5.12c.07,0,.13.18.13.42s-.06.42-.13.42"></path><path class="cls-2" d="M25.25,35.59H20.14c-.08,0-.14-.19-.14-.42s.06-.42.14-.42h5.11c.08,0,.14.18.14.42s-.06.42-.14.42"></path><path class="cls-1" d="M28.78,29.29V24.44c0-.08.19-.14.42-.14s.42.06.42.14v4.85c0,.08-.18.14-.42.14s-.42-.06-.42-.14"></path><path class="cls-2" d="M26.56,29.29v-7.4c0-.08.19-.14.42-.14s.42.06.42.14v7.4c0,.08-.19.14-.42.14s-.42-.06-.42-.14"></path><path class="cls-1" d="M24.43,29.29V23.18c0-.08.19-.14.43-.14s.42.06.42.14v6.11c0,.08-.19.14-.42.14s-.43-.06-.43-.14"></path><path class="cls-1" d="M22,29.29V26.2c0-.08.19-.14.42-.14s.42.06.42.14v3.09c0,.08-.19.14-.42.14s-.42-.06-.42-.14"></path><path class="cls-1" d="M19.74,29.29V24.51c0-.08.19-.14.42-.14s.42.06.42.14v4.78c0,.08-.19.14-.42.14s-.42-.06-.42-.14"></path><path class="cls-1" d="M17.61,29.29V26c0-.07.19-.14.43-.14s.42.07.42.14v3.33c0,.08-.19.14-.42.14s-.43-.06-.43-.14"></path><path class="cls-1" d="M35.38,29.29V27c0-.08.19-.14.42-.14s.42.06.42.14v2.32c0,.08-.19.14-.42.14s-.42-.06-.42-.14"></path><path class="cls-1" d="M33.16,29.29V25.66c0-.08.19-.14.42-.14s.42.06.42.14v3.63c0,.08-.19.14-.42.14s-.42-.06-.42-.14"></path><path class="cls-1" d="M31,29.29V23.18c0-.08.19-.14.43-.14s.42.06.42.14v6.11c0,.08-.19.14-.42.14s-.43-.06-.43-.14"></path><path class="cls-1" d="M43.2,35.59H38.09c-.08,0-.14-.19-.14-.42s.06-.42.14-.42H43.2c.08,0,.14.18.14.42s-.06.42-.14.42"></path><path class="cls-3" d="M12.63,28.89H9.56c-.05,0-.09-.17-.09-.39s0-.4.09-.4h3.07s.08.18.08.4,0,.39-.08.39"></path><path class="cls-3" d="M12.63,30.77H9.56c-.05,0-.09-.17-.09-.39s0-.4.09-.4h3.07s.08.18.08.4,0,.39-.08.39"></path><path class="cls-3" d="M12.63,32.66H9.56c-.05,0-.09-.18-.09-.4s0-.4.09-.4h3.07s.08.18.08.4,0,.4-.08.4"></path><path class="cls-3" d="M12.63,27H9.56c-.05,0-.09-.18-.09-.4s0-.4.09-.4h3.07s.08.18.08.4,0,.4-.08.4"></path><path class="cls-1" d="M14.6,36.74V19.23c0-.08.19-.14.42-.14s.43.06.43.14V36.74c0,.08-.19.14-.43.14s-.42-.06-.42-.14"></path><path class="cls-1" d="M42.84,19.59H7.22a.5.5,0,0,1-.5-.5.51.51,0,0,1,.5-.5H42.84a.5.5,0,0,1,.5.5A.5.5,0,0,1,42.84,19.59Z"></path><circle class="cls-3" cx="10.76" cy="15.96" r="1"></circle><circle class="cls-3" cx="15.02" cy="15.96" r="1"></circle><circle class="cls-3" cx="19" cy="15.96" r="1"></circle><path class="cls-1" d="M45.64,38.17H18.4A1.37,1.37,0,0,1,17,36.8V33.53a1.37,1.37,0,0,1,1.37-1.37H37a.5.5,0,0,1,.5.5.5.5,0,0,1-.5.5H18.4a.38.38,0,0,0-.37.37V36.8a.37.37,0,0,0,.37.37H45.64A.37.37,0,0,0,46,36.8V35a.5.5,0,0,1,.5-.5.51.51,0,0,1,.5.5V36.8A1.37,1.37,0,0,1,45.64,38.17Z"></path><path class="cls-1" d="M42.94,29.89a4.07,4.07,0,0,1,0-8.13h.5v3.86l2.72,2.72-.35.35A4,4,0,0,1,42.94,29.89Zm-.5-7.09a3.07,3.07,0,0,0,.5,6.09,3,3,0,0,0,1.78-.58L42.44,26Z"></path><path class="cls-3" d="M46.5,25.83a3.5,3.5,0,0,1-1,2.51l-2.51-2.51V22.26A3.56,3.56,0,0,1,46.5,25.83Z"></path><path class="cls-3" d="M45.45,29l-3-3V21.76h.5A4.07,4.07,0,0,1,47,25.83,4,4,0,0,1,45.8,28.7Zm-2-3.42,2,2a3.06,3.06,0,0,0-2-4.81Z"></path><path class="cls-1" d="M48.91,42.66H10.14a3.93,3.93,0,0,1-3.92-3.93V16.22a3.93,3.93,0,0,1,3.92-3.92H32.61a.5.5,0,0,1,0,1H10.14a2.92,2.92,0,0,0-2.92,2.92V38.73a2.93,2.93,0,0,0,2.92,2.93H48.91a2.93,2.93,0,0,0,2.92-2.93V16.22a2.92,2.92,0,0,0-2.92-2.92h-3a.5.5,0,0,1,0-1h3a3.93,3.93,0,0,1,3.92,3.92V38.73A3.93,3.93,0,0,1,48.91,42.66Z"></path></g></svg> 