<?xml version="1.0" encoding="UTF-8"?> <svg xmlns="http://www.w3.org/2000/svg" viewBox="0 0 59.05 54.96"><defs><style>.cls-1{fill:#f6731f;}.cls-2{fill:#004adb;}</style></defs><g id="Warstwa_1" data-name="Warstwa 1"><path class="cls-1" d="M29.49,36.4a9.87,9.87,0,0,1-1.22-.07.7.7,0,0,1-.64-.69V34.52a.55.55,0,0,0-.44-.49,9.2,9.2,0,0,1-1.14-.43.77.77,0,0,0-.8.11l-.86.77a.72.72,0,0,1-.89.08A8.83,8.83,0,0,1,21.72,33a.7.7,0,0,1-.17-.53.65.65,0,0,1,.27-.46l.83-.76a.47.47,0,0,0,.11-.59c-.06-.11-.13-.23-.19-.36a.5.5,0,0,1,.9-.44c.05.1.1.2.16.3A1.47,1.47,0,0,1,23.32,32l-.64.58a8.65,8.65,0,0,0,1.19,1.07l.72-.65a1.77,1.77,0,0,1,1.88-.27,8.58,8.58,0,0,0,1,.38,1.54,1.54,0,0,1,1.16,1.45v.84a8.34,8.34,0,0,0,1.73,0v-.84a1.57,1.57,0,0,1,1.15-1.46,6.63,6.63,0,0,0,1-.37,1.77,1.77,0,0,1,1.87.27l.72.65a8.65,8.65,0,0,0,1.19-1.07L35.65,32a1.46,1.46,0,0,1-.29-1.83,6,6,0,0,0,.4-.88,1.64,1.64,0,0,1,1.55-1h1a8,8,0,0,0,0-1.47h-1a1.61,1.61,0,0,1-1.55-1.06,5.8,5.8,0,0,0-.41-.87,1.45,1.45,0,0,1,.3-1.81l.65-.58a8.59,8.59,0,0,0-1.19-1.07l-.72.64a1.7,1.7,0,0,1-1.14.43,1.74,1.74,0,0,1-.74-.16,5.8,5.8,0,0,0-1-.37,1.55,1.55,0,0,1-1.16-1.46v-.84a10,10,0,0,0-1.73,0v.84a1.56,1.56,0,0,1-1.16,1.46,5.7,5.7,0,0,0-1,.37A1.74,1.74,0,0,1,24.59,22l-.71-.64a7.71,7.71,0,0,0-1.2,1.06l.64.59a1.43,1.43,0,0,1,.32,1.8,5.74,5.74,0,0,0-.42.9,1.61,1.61,0,0,1-1.56,1H20.43a.5.5,0,0,1-.5-.5.5.5,0,0,1,.5-.5h1.23a.62.62,0,0,0,.62-.38,6.79,6.79,0,0,1,.48-1.05.45.45,0,0,0-.1-.57L21.78,23a.68.68,0,0,1-.06-1,9.44,9.44,0,0,1,1.75-1.58.69.69,0,0,1,.43-.13.74.74,0,0,1,.46.16l.9.81a.75.75,0,0,0,.79.11,5.81,5.81,0,0,1,1.14-.43.57.57,0,0,0,.44-.5V19.32a.69.69,0,0,1,.65-.7,11.06,11.06,0,0,1,2.44,0,.71.71,0,0,1,.64.7v1.11a.57.57,0,0,0,.44.5,7.54,7.54,0,0,1,1.15.43.78.78,0,0,0,.77-.11l.88-.79a.76.76,0,0,1,.89-.07A9.76,9.76,0,0,1,37.26,22a.67.67,0,0,1,.17.49.68.68,0,0,1-.21.46l-.9.81a.45.45,0,0,0-.1.57,6.21,6.21,0,0,1,.48,1,.62.62,0,0,0,.61.39h1.24a.73.73,0,0,1,.72.59,9,9,0,0,1,0,2.26.75.75,0,0,1-.73.62H37.31a.62.62,0,0,0-.6.37,7.4,7.4,0,0,1-.49,1.06.46.46,0,0,0,.11.58l.87.79a.65.65,0,0,1,.23.48.66.66,0,0,1-.2.51,9.13,9.13,0,0,1-1.71,1.54.71.71,0,0,1-.94-.07l-.86-.76a.74.74,0,0,0-.78-.11A9,9,0,0,1,31.8,34a.57.57,0,0,0-.44.5v1.12a.71.71,0,0,1-.65.69A9.87,9.87,0,0,1,29.49,36.4Zm1.11-1.06Zm-2.23,0h0Zm-4.65-1.6,0,0Zm11.53,0h0Zm1.28-1h0Zm-14,0,0,0Zm14-.41,0,0Zm0-9.69,0,0Zm-14-.43h0Zm1.61-1,0,0Zm6.55-1.59Zm-2.22,0h0Zm1.1,11.84a4.57,4.57,0,0,1-3.08-1.15,3.75,3.75,0,0,1,0-5.68,4.74,4.74,0,0,1,3.83-1.09h0a4.58,4.58,0,0,1,2.33,1.09,3.83,3.83,0,0,1,1.31,2.84.5.5,0,0,1-.5.5.5.5,0,0,1-.5-.5,2.87,2.87,0,0,0-1-2.1,3.53,3.53,0,0,0-1.81-.84h0a3.7,3.7,0,0,0-3,.85,2.75,2.75,0,0,0,0,4.19,3.79,3.79,0,0,0,4.82,0,.51.51,0,0,1,.71,0,.5.5,0,0,1,0,.71A4.59,4.59,0,0,1,29.49,31.46Z"></path><path class="cls-2" d="M13.24,18.72H4.68a.5.5,0,0,1-.5-.5V14a.5.5,0,0,1,.5-.5h8.56a.5.5,0,0,1,.5.5v4.25A.5.5,0,0,1,13.24,18.72Zm-8.06-1h7.56V14.47H5.18Z"></path><path class="cls-2" d="M13.24,30.11H4.68a.5.5,0,0,1-.5-.5V25.35a.5.5,0,0,1,.5-.5h8.56a.5.5,0,0,1,.5.5v4.26A.5.5,0,0,1,13.24,30.11Zm-8.06-1h7.56V25.85H5.18Z"></path><path class="cls-2" d="M13.24,41.49H4.68a.5.5,0,0,1-.5-.5V36.73a.5.5,0,0,1,.5-.5h8.56a.5.5,0,0,1,.5.5V41A.5.5,0,0,1,13.24,41.49Zm-8.06-1h7.56V37.23H5.18Z"></path><path class="cls-1" d="M21.6,19.55a.5.5,0,0,1-.43-.23A6.24,6.24,0,0,0,16,16.6a.51.51,0,0,1-.5-.5.5.5,0,0,1,.5-.5,7.25,7.25,0,0,1,6,3.19.5.5,0,0,1-.16.69A.51.51,0,0,1,21.6,19.55Z"></path><path class="cls-2" d="M17.21,39.21a5.66,5.66,0,0,1-1.36-.14.5.5,0,1,1,.23-1,6.26,6.26,0,0,0,5.57-1.72.5.5,0,0,1,.71,0,.5.5,0,0,1,0,.7A7.19,7.19,0,0,1,17.21,39.21Z"></path><path class="cls-2" d="M54.38,18.72H45.81a.5.5,0,0,1-.5-.5V14a.5.5,0,0,1,.5-.5h8.57a.5.5,0,0,1,.5.5v4.25A.5.5,0,0,1,54.38,18.72Zm-8.07-1h7.57V14.47H46.31Z"></path><path class="cls-2" d="M54.38,30.11H45.81a.5.5,0,0,1-.5-.5V25.35a.5.5,0,0,1,.5-.5h8.57a.5.5,0,0,1,.5.5v4.26A.51.51,0,0,1,54.38,30.11Zm-8.07-1h7.57V25.85H46.31Z"></path><path class="cls-2" d="M54.38,41.49H45.81a.5.5,0,0,1-.5-.5V36.73a.5.5,0,0,1,.5-.5h8.57a.5.5,0,0,1,.5.5V41A.51.51,0,0,1,54.38,41.49Zm-8.07-1h7.57V37.23H46.31Z"></path><path class="cls-2" d="M37.46,19.55a.54.54,0,0,1-.27-.07.51.51,0,0,1-.16-.69,7.25,7.25,0,0,1,6-3.19.5.5,0,0,1,.5.5.51.51,0,0,1-.5.5,6.24,6.24,0,0,0-5.16,2.72A.49.49,0,0,1,37.46,19.55Z"></path><path class="cls-1" d="M41.85,39.21a7.2,7.2,0,0,1-5.16-2.13.5.5,0,0,1,0-.7.5.5,0,0,1,.71,0A6.26,6.26,0,0,0,43,38.1a.5.5,0,0,1,.23,1A5.53,5.53,0,0,1,41.85,39.21Z"></path></g></svg> 