<?xml version="1.0" encoding="UTF-8"?> <svg xmlns="http://www.w3.org/2000/svg" viewBox="0 0 59.05 54.96"><defs><style>.cls-1{fill:#004adb;}.cls-2{fill:#f6731f;}</style></defs><g id="Warstwa_1" data-name="Warstwa 1"><path class="cls-1" d="M44.29,39.87H37.66v-8.6h4a6.54,6.54,0,0,0,1.49-12.9l-.45-.11.07-.46a8.48,8.48,0,0,0,.11-1.26,8.26,8.26,0,0,0-15.85-3.27l-.18.42-.44-.14A6.62,6.62,0,0,0,19.07,16l-.82-.58a7.56,7.56,0,0,1,8.06-2.95A9.26,9.26,0,0,1,43.9,16.54a8.4,8.4,0,0,1-.06,1,7.54,7.54,0,0,1-2.16,14.76h-3v6.6h5.63Z"></path><path class="cls-1" d="M24.28,39.87H18.5v-1h4.78v-6.6H17.37a7.54,7.54,0,0,1-3.61-14.16l.48.88a6.54,6.54,0,0,0,3.13,12.28h6.91Z"></path><path class="cls-1" d="M16.29,42.16a2.79,2.79,0,1,1,2.79-2.79A2.79,2.79,0,0,1,16.29,42.16Zm0-4.58a1.79,1.79,0,1,0,1.79,1.79A1.79,1.79,0,0,0,16.29,37.58Z"></path><path class="cls-1" d="M46.43,42.16a2.79,2.79,0,1,1,2.79-2.79A2.8,2.8,0,0,1,46.43,42.16Zm0-4.58a1.79,1.79,0,1,0,1.79,1.79A1.8,1.8,0,0,0,46.43,37.58Z"></path><path class="cls-1" d="M30.76,47.68a2.8,2.8,0,1,1,2.79-2.79A2.8,2.8,0,0,1,30.76,47.68Zm0-4.59a1.8,1.8,0,1,0,1.79,1.8A1.81,1.81,0,0,0,30.76,43.09Z"></path><circle class="cls-2" cx="30.76" cy="25.04" r="1.65"></circle><rect class="cls-1" x="30.26" y="30.68" width="1" height="12.05"></rect><path class="cls-2" d="M26.9,23a.52.52,0,0,1-.35-.14.5.5,0,0,1,0-.71,5.83,5.83,0,0,1,8.3-.15.5.5,0,0,1-.7.71,4.84,4.84,0,0,0-3.37-1.37,4.77,4.77,0,0,0-3.5,1.5A.52.52,0,0,1,26.9,23Z"></path><path class="cls-2" d="M24.21,20.92a.49.49,0,0,1-.36-.84,9.47,9.47,0,0,1,6.91-3A9.34,9.34,0,0,1,37.56,20a.5.5,0,1,1-.72.69,8.46,8.46,0,0,0-12.26.1A.49.49,0,0,1,24.21,20.92Z"></path></g></svg> 