<?xml version="1.0" encoding="UTF-8"?> <svg xmlns="http://www.w3.org/2000/svg" viewBox="0 0 59.05 54.96"><defs><style>.cls-1{fill:#004adb;}.cls-2{fill:#f6731f;}</style></defs><g id="Layer_3" data-name="Layer 3"><path class="cls-1" d="M42.31,19.37H6.69a.5.5,0,0,1,0-1H42.31a.5.5,0,0,1,0,1Z"></path><circle class="cls-2" cx="10.23" cy="15.74" r="1"></circle><circle class="cls-2" cx="14.49" cy="15.74" r="1"></circle><circle class="cls-2" cx="18.46" cy="15.74" r="1"></circle><path class="cls-1" d="M36.18,43.75H23a.5.5,0,0,1-.5-.5V39.34a.5.5,0,0,1,.5-.5h13.2a.5.5,0,0,1,.5.5v3.91A.51.51,0,0,1,36.18,43.75Zm-12.7-1h12.2V39.84H23.48Z"></path><path class="cls-1" d="M32.39,39.84H26.76a.51.51,0,0,1-.48-.36l-1.75-6a.49.49,0,0,1,.08-.42l4.46-6.32a.5.5,0,0,1,.4-.22.65.65,0,0,1,.41.21L34.54,33a.5.5,0,0,1,.08.43l-1.75,6A.5.5,0,0,1,32.39,39.84Zm-5.25-1H32l1.58-5.43-4.11-5.56-3.92,5.56Z"></path><path class="cls-1" d="M29.48,33.21a.5.5,0,0,1-.5-.5V27a.5.5,0,0,1,.5-.5.51.51,0,0,1,.5.5v5.72A.5.5,0,0,1,29.48,33.21Z"></path><path class="cls-1" d="M29.48,35.3a1.59,1.59,0,1,1,1.58-1.59A1.59,1.59,0,0,1,29.48,35.3Zm0-2.18a.59.59,0,1,0,.58.59A.59.59,0,0,0,29.48,33.12Z"></path><path class="cls-2" d="M42.57,25.12H16.73a.5.5,0,0,1,0-1H42.57a.5.5,0,0,1,0,1Z"></path><path class="cls-2" d="M16.49,26.89H12.83a.5.5,0,0,1-.5-.5V22.73a.51.51,0,0,1,.5-.5h3.66a.51.51,0,0,1,.5.5v3.66A.5.5,0,0,1,16.49,26.89Zm-3.16-1H16V23.23H13.33Z"></path><path class="cls-2" d="M46.22,26.89H42.57a.5.5,0,0,1-.5-.5V22.73a.5.5,0,0,1,.5-.5h3.65a.5.5,0,0,1,.5.5v3.66A.5.5,0,0,1,46.22,26.89Zm-3.15-1h2.65V23.23H43.07Z"></path><path class="cls-1" d="M17.46,41.57H10.18a3.93,3.93,0,0,1-3.92-3.93V15.13a3.93,3.93,0,0,1,3.92-3.92H32.64a.5.5,0,0,1,0,1H10.18a2.92,2.92,0,0,0-2.92,2.92V37.64a2.93,2.93,0,0,0,2.92,2.93h7.28a.5.5,0,0,1,.5.5A.5.5,0,0,1,17.46,41.57Z"></path><path class="cls-1" d="M48.94,41.57h-7a.5.5,0,0,1-.5-.5.5.5,0,0,1,.5-.5h7a2.93,2.93,0,0,0,2.92-2.93V15.13a2.92,2.92,0,0,0-2.92-2.92h-3a.5.5,0,0,1,0-1h3a3.92,3.92,0,0,1,3.92,3.92V37.64A3.92,3.92,0,0,1,48.94,41.57Z"></path></g></svg> 