<?xml version="1.0" encoding="UTF-8"?> <svg xmlns="http://www.w3.org/2000/svg" viewBox="0 0 37.17 37.57"><defs><style>.cls-1{fill:#f6731f;}.cls-2{fill:#004adb;}</style></defs><g id="Warstwa_2" data-name="Warstwa 2"><g id="Warstwa_1-2" data-name="Warstwa 1"><g id="Warstwa_1-3" data-name="Warstwa 1"><path class="cls-1" d="M10.75,21.61,4.23,19.77a1,1,0,0,1-.69-1.24A1,1,0,0,1,4,17.94L16.57,10.7l-1.65,2.07c-4.24,5.28-4.19,8.13-4.19,8.16Zm1.93-7.51L4.51,18.8l5.28,1.5A15.89,15.89,0,0,1,12.68,14.1Z"></path><path class="cls-1" d="M18.29,33.63h-.12a1,1,0,0,1-.84-.72l-1.84-6.52.68,0h0c.09,0,3,0,8.16-4.18l2.07-1.66L19.16,33.13A1,1,0,0,1,18.29,33.63ZM16.8,27.34l1.49,5.29L23,24.46A16,16,0,0,1,16.8,27.34Z"></path><path class="cls-2" d="M13.25,27.47a3.3,3.3,0,0,1-2.36-1l-.11-.11a3.33,3.33,0,0,1,0-4.71l.53-.53L16.13,26l-.52.53A3.34,3.34,0,0,1,13.25,27.47ZM11.6,25.79a2.38,2.38,0,0,0,3.11.16l-3.39-3.38a2.34,2.34,0,0,0,.17,3.11Z"></path><path class="cls-1" d="M1.33,32.48a.5.5,0,0,1-.5-.5A.53.53,0,0,1,1,31.63l4.27-4.27a.5.5,0,0,1,.71.71L1.69,32.34A.52.52,0,0,1,1.33,32.48Z"></path><path class="cls-2" d="M34.18,11.3A8.33,8.33,0,0,1,25.86,3a.5.5,0,0,1,.5-.5.5.5,0,0,1,.5.5,7.33,7.33,0,0,0,7.32,7.31.5.5,0,0,1,0,1Z"></path><path class="cls-1" d="M.5,37.57a.5.5,0,0,1-.5-.5.47.47,0,0,1,.15-.35l8.13-8.14a.5.5,0,0,1,.71.71L.85,37.43A.5.5,0,0,1,.5,37.57Z"></path><path class="cls-1" d="M6.43,35.76a.5.5,0,0,1-.36-.85l4.27-4.27a.5.5,0,0,1,.71.71L6.78,35.62A.5.5,0,0,1,6.43,35.76Z"></path><path class="cls-2" d="M15.43,11.91a.5.5,0,0,1-.5-.5.53.53,0,0,1,.12-.32c.33-.39.68-.78,1.06-1.19a.5.5,0,0,1,.7,0,.5.5,0,0,1,0,.71l-1,1.16A.49.49,0,0,1,15.43,11.91Z"></path><path class="cls-2" d="M16.25,27.38H16L9.8,21.15V21c0-.14-.06-3.64,5.26-9.86a.5.5,0,1,1,.76.65h0c-4.36,5.09-4.93,8.23-5,9l5.63,5.63c.89-.09,5.05-.87,11.79-7.62A26.85,26.85,0,0,0,34.48,8.69,30,30,0,0,0,36.13,1,29.67,29.67,0,0,0,28.4,2.72c-.6.22-1.21.46-1.83.73a.5.5,0,0,1-.66-.26.5.5,0,0,1,.26-.66c.61-.26,1.24-.52,1.89-.75A29.09,29.09,0,0,1,36.65,0h.52V.51A29.24,29.24,0,0,1,35.42,9a27.93,27.93,0,0,1-6.49,10.43C21.23,27.16,16.73,27.38,16.25,27.38Z"></path><path class="cls-2" d="M19.55,23.71a.5.5,0,0,1-.5-.5.48.48,0,0,1,.26-.43A36.35,36.35,0,0,0,27,16.67a24.56,24.56,0,0,0,2.53-3,.51.51,0,0,1,.7-.11.5.5,0,0,1,.11.7,25.63,25.63,0,0,1-2.63,3.08,37,37,0,0,1-7.93,6.27A.5.5,0,0,1,19.55,23.71Z"></path></g></g></g></svg> 