<?xml version="1.0" encoding="UTF-8"?> <svg xmlns="http://www.w3.org/2000/svg" viewBox="0 0 48.68 38.27"><defs><style>.cls-1{fill:#004adb;}.cls-2{fill:#f37224;}.cls-3{fill:#f6731f;}</style></defs><g id="Warstwa_2" data-name="Warstwa 2"><g id="Warstwa_1-2" data-name="Warstwa 1"><g id="Warstwa_1-3" data-name="Warstwa 1"><path class="cls-1" d="M32.11,26.42H.7a.5.5,0,0,1-.5-.5.5.5,0,0,1,.5-.5H32.11a.5.5,0,0,1,.5.5A.5.5,0,0,1,32.11,26.42Z"></path><path class="cls-2" d="M33.45,38.27c-4.85,0-8.8-3.55-8.8-7.92a.52.52,0,0,1,.57-.46.53.53,0,0,1,.46.46c0,3.86,3.48,7,7.77,7a.46.46,0,0,1,.51.41.46.46,0,0,1-.41.51h-.1"></path><path class="cls-2" d="M9.37,37.93a.48.48,0,0,1-.51-.42A.47.47,0,0,1,9.27,37h.1c4.29,0,7.78-3.13,7.78-7a.52.52,0,0,1,.57-.46.51.51,0,0,1,.45.46c0,4.37-3.94,7.92-8.8,7.92"></path><path class="cls-2" d="M15,11.61H7.81a.47.47,0,0,1-.1-.93H15a.48.48,0,0,1,.51.42.47.47,0,0,1-.41.51H15"></path><path class="cls-2" d="M26.58,14.63H7.81a.47.47,0,0,1-.51-.41.46.46,0,0,1,.41-.51.17.17,0,0,1,.1,0H26.58a.45.45,0,0,1,.51.41.46.46,0,0,1-.41.51h-.1"></path><path class="cls-2" d="M21.39,17.65H7.81a.47.47,0,0,1-.51-.41.46.46,0,0,1,.41-.51.17.17,0,0,1,.1,0H21.39a.46.46,0,0,1,.51.41.47.47,0,0,1-.41.51h-.1"></path><path class="cls-2" d="M15.82,20.67h-8a.47.47,0,0,1-.51-.41.46.46,0,0,1,.41-.51.17.17,0,0,1,.1,0h8a.46.46,0,1,1,.09.92h-.09"></path><path class="cls-1" d="M45.34,22.73H38a3.34,3.34,0,0,1-3.34-3.33V3.33A3.34,3.34,0,0,1,38,0h7.35a3.34,3.34,0,0,1,3.34,3.33V19.4A3.34,3.34,0,0,1,45.34,22.73ZM38,1a2.34,2.34,0,0,0-2.34,2.33V19.4A2.33,2.33,0,0,0,38,21.73h7.35a2.33,2.33,0,0,0,2.34-2.33V3.33A2.34,2.34,0,0,0,45.34,1Z"></path><path class="cls-1" d="M37.88,30.39H3.41A3.28,3.28,0,0,1,0,27.27V6.13A3.29,3.29,0,0,1,3.41,3H30.48a.5.5,0,0,1,.5.5.5.5,0,0,1-.5.5H3.41A2.29,2.29,0,0,0,1,6.13V27.27a2.28,2.28,0,0,0,2.41,2.12H37.88a2.28,2.28,0,0,0,2.41-2.12v-.75a.51.51,0,0,1,.5-.5.5.5,0,0,1,.5.5v.75A3.27,3.27,0,0,1,37.88,30.39Z"></path><path class="cls-3" d="M44.84,9.39H38.78a.5.5,0,0,1,0-1h6.06a.5.5,0,0,1,0,1Z"></path><path class="cls-3" d="M44.84,15.61H38.78a.5.5,0,0,1,0-1h6.06a.5.5,0,0,1,0,1Z"></path><path class="cls-3" d="M41.71,12.31H38.78a.5.5,0,0,1-.5-.5.5.5,0,0,1,.5-.5h2.93a.51.51,0,0,1,.5.5A.5.5,0,0,1,41.71,12.31Z"></path><polygon class="cls-1" points="38.07 0.5 40.24 2.67 43.42 2.67 45.27 0.5 38.07 0.5"></polygon></g></g></g></svg> 