<?xml version="1.0" encoding="UTF-8"?> <svg xmlns="http://www.w3.org/2000/svg" viewBox="0 0 41.03 35.12"><defs><style>.cls-1{fill:#004adb;}.cls-2{fill:#f6731f;}.cls-3{fill:#f37224;}</style></defs><g id="Warstwa_2" data-name="Warstwa 2"><g id="Warstwa_1-2" data-name="Warstwa 1"><g id="Warstwa_1-3" data-name="Warstwa 1"><path class="cls-1" d="M37.7,26.38H3.33A3.33,3.33,0,0,1,0,23.05V3.33A3.33,3.33,0,0,1,3.33,0H37.7A3.33,3.33,0,0,1,41,3.33V23.05A3.33,3.33,0,0,1,37.7,26.38ZM3.33,1A2.34,2.34,0,0,0,1,3.33V23.05a2.34,2.34,0,0,0,2.33,2.33H37.7A2.33,2.33,0,0,0,40,23.05V3.33A2.33,2.33,0,0,0,37.7,1Z"></path><path class="cls-2" d="M27.82,7.58H15.65a.5.5,0,0,1-.5-.5.51.51,0,0,1,.5-.5H27.82a.51.51,0,0,1,.5.5A.5.5,0,0,1,27.82,7.58Z"></path><path class="cls-2" d="M10.84,21.68H8.93a2.41,2.41,0,0,1-2.4-2.4V15.12a2.39,2.39,0,0,1,2.4-2.4h1.91a2.4,2.4,0,0,1,2.4,2.4v4.16A2.41,2.41,0,0,1,10.84,21.68Zm-1.91-8a1.4,1.4,0,0,0-1.4,1.4v4.16a1.41,1.41,0,0,0,1.4,1.4h1.91a1.41,1.41,0,0,0,1.4-1.4V15.12a1.4,1.4,0,0,0-1.4-1.4Z"></path><path class="cls-2" d="M10.84,10.08H8.93a2.39,2.39,0,0,1-2.4-2.39V7a2.4,2.4,0,0,1,2.4-2.4h1.91A2.41,2.41,0,0,1,13.24,7v.66A2.4,2.4,0,0,1,10.84,10.08ZM8.93,5.63A1.4,1.4,0,0,0,7.53,7v.66a1.4,1.4,0,0,0,1.4,1.39h1.91a1.4,1.4,0,0,0,1.4-1.39V7a1.4,1.4,0,0,0-1.4-1.4Z"></path><path class="cls-1" d="M21.15,35.12a.49.49,0,0,1-.5-.49h0V25.89a.5.5,0,0,1,1,0v8.73a.5.5,0,0,1-.5.5Z"></path><path class="cls-1" d="M12.54,34.82a.5.5,0,0,1-.5-.5.52.52,0,0,1,.14-.36l8-8a.5.5,0,0,1,.71.71l-8,8A.51.51,0,0,1,12.54,34.82Z"></path><path class="cls-1" d="M29.83,34.82a.51.51,0,0,1-.35-.15l-8-8a.5.5,0,0,1,0-.71.5.5,0,0,1,.7,0l8,8a.5.5,0,0,1,0,.71.51.51,0,0,1-.35.15Z"></path><path class="cls-1" d="M24,35.07H18.31a.5.5,0,1,1,0-1H24a.5.5,0,0,1,0,1Z"></path><path class="cls-1" d="M32.55,35H26.9a.51.51,0,0,1-.5-.5.5.5,0,0,1,.5-.5h5.65a.5.5,0,0,1,.5.5A.5.5,0,0,1,32.55,35Z"></path><path class="cls-1" d="M15.36,35H9.71a.51.51,0,0,1-.5-.5.5.5,0,0,1,.5-.5h5.65a.5.5,0,0,1,.5.5A.5.5,0,0,1,15.36,35Z"></path><path class="cls-3" d="M23.31,16.15H16.17a.47.47,0,0,1-.52-.41.48.48,0,0,1,.42-.52h7.24a.47.47,0,0,1,.1.93h-.1"></path><path class="cls-3" d="M34.94,19.17H16.17a.47.47,0,0,1-.52-.41.46.46,0,0,1,.42-.51.17.17,0,0,1,.1,0H34.94a.46.46,0,0,1,.51.41.47.47,0,0,1-.41.51h-.1"></path></g></g></g></svg> 