<?xml version="1.0" encoding="UTF-8"?> <svg xmlns="http://www.w3.org/2000/svg" viewBox="0 0 50.2 31.75"><defs><style>.cls-1{fill:#004adb;}.cls-2{fill:#f6731f;}</style></defs><g id="Warstwa_2" data-name="Warstwa 2"><g id="Warstwa_1-2" data-name="Warstwa 1"><g id="Warstwa_1-3" data-name="Warstwa 1"><path class="cls-1" d="M42,9.07a10.7,10.7,0,0,0-9.47-8l.09-1A11.72,11.72,0,0,1,43,8.82Z"></path><path class="cls-1" d="M40.67,31.75H31.09v-1h9.58a8.52,8.52,0,0,0,1.95-16.82l-.45-.1.07-.46a11.22,11.22,0,0,0,.14-1.64A10.38,10.38,0,0,0,42,9.07l1-.25a11.9,11.9,0,0,1,.37,2.91c0,.45,0,.9-.09,1.34a9.52,9.52,0,0,1-2.62,18.68Z"></path><path class="cls-1" d="M14.58,31.75H9.53a9.53,9.53,0,0,1,0-19h.06a9.53,9.53,0,0,1,11.49-6A11.74,11.74,0,0,1,31.65,0c.34,0,.67,0,1,0l-.09,1c-.3,0-.61,0-.92,0A10.71,10.71,0,0,0,21.8,7.49l-.18.41-.44-.14a8.52,8.52,0,0,0-10.73,5.47s0,.09,0,.14l-.12.37-.54,0H9.53a8.53,8.53,0,0,0,0,17.05h5.07Z"></path><path class="cls-2" d="M31.73,24.24a4.64,4.64,0,0,1-3.28-1.36l-1.31-1.31.81-.81,1.31,1.31a3.58,3.58,0,0,0,4.94,0,3.51,3.51,0,0,0,0-4.95,3.58,3.58,0,0,0-4.94,0L23.5,22.88a4.64,4.64,0,1,1,0-6.57h0l1.32,1.32-.82.8-1.3-1.31a3.59,3.59,0,0,0-4.95,0,3.5,3.5,0,0,0,0,4.94h0a3.58,3.58,0,0,0,4.94,0l5.75-5.76a4.64,4.64,0,1,1,3.28,7.93Z"></path><path class="cls-1" d="M40.42,11.66h-1a8.18,8.18,0,0,0-8.18-8.17A8,8,0,0,0,28.41,4l-.35-.94A9.18,9.18,0,0,1,39.85,8.49,9.06,9.06,0,0,1,40.42,11.66Z"></path></g></g></g></svg> 