<?xml version="1.0" encoding="UTF-8"?> <svg xmlns="http://www.w3.org/2000/svg" xmlns:xlink="http://www.w3.org/1999/xlink" width="62px" height="63px" viewBox="0 0 62 63" version="1.1"><title>Wartości/Uczciwość Copy 2@1x</title><g id="Page-1" stroke="none" stroke-width="1" fill="none" fill-rule="evenodd"><g id="Usługi-_Tworzenie-aplikacji-mobilnych_08" transform="translate(-418.000000, -655.000000)" fill-rule="nonzero"><g id="Group-18" transform="translate(374.000000, 612.000000)"><g id="Wartości/Uczciwość-Copy-2" transform="translate(44.000000, 43.000000)"><g id="costumer" transform="translate(0.000000, -0.000000)"><path d="M61.8469007,52.45663 C61.1652795,50.2553921 59.7692213,48.2789038 57.9156814,46.8909299 C57.0283266,46.2264898 56.0620204,45.7089361 55.0426764,45.3425071 C56.4559294,44.2332906 57.3665337,42.5113408 57.3665337,40.579536 C57.3665337,37.2414722 54.6508259,34.5258291 51.3129525,34.5258291 C47.974958,34.5258291 45.2592502,37.2414722 45.2592502,40.579536 C45.2592502,42.50904 46.1676748,44.2292945 47.5781428,45.3386322 C45.6877912,46.0133652 44.0131027,47.1988707 42.7306279,48.7963363 C42.1312275,47.9577638 41.4397979,47.1788903 40.6625147,46.4759424 C39.0963238,45.0595116 37.2582835,44.0193183 35.2788089,43.4045266 C37.3779214,42.0129199 38.7656242,39.6301628 38.7656242,36.9284455 C38.7656242,32.6465788 35.2819573,29.1629606 31.0001796,29.1629606 C26.7184018,29.1629606 23.2347349,32.6465788 23.2347349,36.9284455 C23.2347349,39.6301628 24.6223166,42.0129199 26.7214291,43.4045266 C24.7418334,44.0191972 22.9037932,45.0595116 21.3376022,46.4759424 C20.5603191,47.1788903 19.8688894,47.9577638 19.2696101,48.7962152 C17.9872564,47.1986285 16.3125679,46.013123 14.4220952,45.3382689 C15.8324421,44.2289312 16.7409878,42.5086767 16.7409878,40.5791727 C16.7409878,37.2411089 14.02528,34.5254658 10.6874066,34.5254658 C7.34941212,34.5254658 4.63370428,37.2411089 4.63370428,40.5791727 C4.63370428,42.5108564 5.5443086,44.2329273 6.95744056,45.3421439 C5.93809652,45.7085728 4.97179035,46.2261265 4.08431442,46.8905666 C2.23077449,48.2784194 0.83471636,50.2550288 0.153095126,52.4561456 C-0.161862564,53.4728467 0.0126295664,54.5046846 0.64436131,55.3617844 C1.27597196,56.2186422 2.21006793,56.6904225 3.27445781,56.6904225 L16.6662747,56.6904225 L16.6662747,58.4387706 C16.6662747,60.9538829 18.7123493,63 21.2274094,63 L40.7727076,63 C43.2876465,63 45.3338422,60.9538829 45.3339633,58.4387706 L45.3339633,56.6909069 L58.7256591,56.6909069 C59.7901701,56.6909069 60.7242661,56.2190054 61.3557556,55.3622688 C61.9873663,54.5051689 62.1618584,53.47321 61.8469007,52.45663 L61.8469007,52.45663 Z M51.3129525,36.4633253 C53.5825611,36.4633253 55.4290777,38.3098803 55.4290777,40.579536 C55.4290777,42.8493128 53.5825611,44.6958678 51.3129525,44.6958678 C49.0432228,44.6958678 47.1967062,42.8493128 47.1967062,40.579536 C47.1967062,38.3098803 49.0432228,36.4633253 51.3129525,36.4633253 Z M25.1721908,36.9284455 C25.1721908,33.7148658 27.7866666,31.1004568 31.0001796,31.1004568 C34.2136925,31.1004568 36.8281683,33.7148658 36.8281683,36.9284455 C36.8281683,40.1410564 34.2153878,42.7547388 31.0033279,42.7564341 C31.0022381,42.7564341 31.0010272,42.7564341 31.0000585,42.7564341 C30.9990897,42.7564341 30.9979999,42.7564341 30.9969101,42.7564341 C27.7848502,42.7546177 25.1721908,40.1409353 25.1721908,36.9284455 L25.1721908,36.9284455 Z M10.6874066,36.4628409 C12.9570152,36.4628409 14.8035319,38.3093959 14.8035319,40.5790516 C14.8035319,42.8488284 12.9570152,44.6953834 10.6874066,44.6953834 C8.41767692,44.6953834 6.57116027,42.8488284 6.57116027,40.5790516 C6.57116027,38.3093959 8.41767692,36.4628409 10.6874066,36.4628409 Z M16.7920882,54.7528052 L3.2745789,54.7528052 C2.82872185,54.7528052 2.46859721,54.5709227 2.20401338,54.2120015 C1.93930846,53.8530804 1.87210295,53.4551671 2.00397105,53.0292812 C3.18872539,49.2033316 6.67844689,46.6328796 10.6874066,46.6328796 C13.7198885,46.6328796 16.4823375,48.0981111 18.1813653,50.5784696 C17.5096735,51.8833733 17.039235,53.2898744 16.7920882,54.7528052 L16.7920882,54.7528052 Z M43.3965073,58.4386495 C43.3965073,59.8853537 42.2193817,61.0623827 40.7727076,61.0623827 L21.2274094,61.0623827 C19.7807352,61.0623827 18.6037307,59.8853537 18.6037307,58.4386495 L18.6037307,55.774229 C19.3050898,49.4546007 24.6238908,44.6955045 30.9969101,44.6939303 C30.9979999,44.6939303 30.9990897,44.6939303 31.0001796,44.6939303 C31.0012694,44.6939303 31.0023592,44.6939303 31.0033279,44.6939303 C37.3762261,44.6956256 42.6949061,49.4546007 43.3965073,55.774229 L43.3965073,58.4386495 Z M59.7962246,54.212607 C59.5316408,54.5714071 59.1716373,54.7532895 58.7256591,54.7532895 L45.2082709,54.7532895 C44.961003,53.2902377 44.4905645,51.8837366 43.8189938,50.5787118 C45.5181427,48.0984744 48.2804706,46.633364 51.3128314,46.633364 C55.3217911,46.633364 58.8115126,49.2039371 59.996267,53.0298867 C60.1281351,53.4555304 60.0608085,53.8534436 59.7962246,54.212607 L59.7962246,54.212607 Z" id="Shape" fill="#004EDC"></path><path d="M21.5254143,15.5579833 C21.3472895,16.1061736 21.5226292,16.6937193 21.9718768,17.0549413 L25.972118,20.2702163 L24.6257072,25.2228199 C24.4745856,25.7788813 24.6781396,26.3572239 25.1447032,26.6965279 C25.6113879,27.0351054 26.2239873,27.0499999 26.7062927,26.7344302 L31.0003006,23.9234865 L35.2944297,26.7345513 C35.5259557,26.8860393 35.7873911,26.9613595 36.0483422,26.9613595 C36.3312108,26.9613595 36.6134739,26.8728401 36.855777,26.6965279 C37.3225828,26.3575872 37.5262579,25.7788813 37.374773,25.2228199 L36.0283622,20.2703374 L40.0283612,17.0551835 C40.4779721,16.6940826 40.6533118,16.1064158 40.4750659,15.5579833 C40.296941,15.0094297 39.8096708,14.6370671 39.2338831,14.6092156 L34.1077379,14.3592786 L32.2860449,9.5613114 C32.0815222,9.02232418 31.5766938,8.67393814 31.0001796,8.67393814 C30.4236653,8.67393814 29.9188369,9.02220308 29.7144353,9.56119031 L27.8926212,14.3593997 L22.7668392,14.6092156 C22.1908094,14.6370671 21.7035392,15.0094297 21.5254143,15.5579833 L21.5254143,15.5579833 Z" id="Path" fill="#F37224"></path><path d="M28.3544623,16.2765522 C28.9008249,16.2499116 29.3792554,15.9022521 29.5731221,15.3909953 L31.0000585,11.6328581 L32.4269948,15.3913586 C32.6212248,15.9024943 33.0997764,16.2499116 33.6456546,16.2765522 L37.6606689,16.4723604 L34.5273182,18.9907422 C34.1009568,19.3335579 33.9183515,19.8960373 34.0618444,20.4235207 L35.1164259,24.3026303 L31.7530023,22.1007869 C31.5242614,21.9511153 31.2620994,21.8762795 30.9999374,21.8762795 C30.7377754,21.8762795 30.4753712,21.9512364 30.2465092,22.100908 L26.8833278,24.3026303 L27.9379093,20.4237628 C28.0815232,19.8959162 27.8987969,19.3333158 27.4723144,18.9907422 L24.3390848,16.4724815 L28.3544623,16.2765522 Z" id="Path" fill="#FFFFFF"></path><path d="M43.4281121,17.0549413 L47.4283532,20.2702163 L46.0819424,25.2228199 C45.9308209,25.7788813 46.1343748,26.3572239 46.6009384,26.6965279 C47.0672599,27.0351054 47.6799803,27.0498788 48.162528,26.7344302 L52.4565359,23.9234865 L56.7506649,26.7345513 C56.9821909,26.8860393 57.2436264,26.9613595 57.5045775,26.9613595 C57.787446,26.9613595 58.0697092,26.8728401 58.3120123,26.6965279 C58.7785759,26.3578294 58.9822509,25.7793657 58.8310083,25.2228199 L57.4845975,20.2703374 L61.4845964,17.0551835 C61.9340862,16.6942037 62.109426,16.1065369 61.93118,15.5579833 C61.7530552,15.0094297 61.265785,14.6370671 60.6901184,14.6092156 L55.5639731,14.3592786 L53.7424012,9.5613114 C53.5378785,9.02232418 53.0330501,8.67393814 52.4565359,8.67393814 C51.8799006,8.67393814 51.3750722,9.02220308 51.1705495,9.56119031 L49.3489776,14.3592786 L44.2231956,14.6090945 C43.6470446,14.636946 43.1597744,15.0094297 42.9816496,15.5579833 C42.8034036,16.1064158 42.9787434,16.6940826 43.4281121,17.0549413 L43.4281121,17.0549413 Z" id="Path" fill="#F37224"></path><path d="M49.8105765,16.2765522 C50.3570602,16.2499116 50.8356118,15.9022521 51.0295996,15.3908742 L52.4564148,11.632737 L53.883109,15.3907531 C54.0772178,15.9022521 54.5557695,16.2499116 55.102011,16.2764311 L59.1170252,16.4722393 L55.9840378,18.9903789 C55.5574342,19.3330736 55.3745868,19.895674 55.5182007,20.4233996 L56.5727822,24.3025092 L53.2093586,22.1006658 C52.9804967,21.9509942 52.7183346,21.8761584 52.4561726,21.8761584 C52.1938895,21.8761584 51.9316064,21.9511153 51.7028655,22.1007869 L48.3396841,24.3025092 L49.3942656,20.4236418 C49.5377585,19.8960373 49.3551532,19.3335579 48.9286707,18.9906211 L45.7954411,16.4722393 L49.8105765,16.2765522 Z" id="Path" fill="#FFFFFF"></path><path d="M0.515399395,17.0549413 L4.51564056,20.2702163 L3.16922974,25.2228199 C3.01810817,25.7788813 3.22166214,26.3572239 3.68822576,26.6965279 C4.15491047,27.0351054 4.76750983,27.0499999 5.24981528,26.7344302 L9.54382321,23.9234865 L13.8379522,26.7345513 C14.0694782,26.8860393 14.3309137,26.9613595 14.5918648,26.9613595 C14.8747334,26.9613595 15.1569965,26.8728401 15.3992996,26.6965279 C15.8658632,26.3578294 16.0695383,25.7793657 15.9182956,25.2228199 L14.5718848,20.2703374 L18.5718838,17.0551835 C19.0211314,16.6944459 19.1965922,16.1069002 19.0184674,15.5573778 C18.8399792,15.0091875 18.352709,14.636946 17.7774057,14.6090945 L12.6512604,14.3591575 L10.8296885,9.5613114 C10.6251658,9.02232418 10.1203375,8.67393814 9.54382321,8.67393814 C8.96718787,8.67393814 8.4623595,9.02220308 8.2578368,9.56119031 L6.4362649,14.3592786 L1.3104829,14.6090945 C0.734453013,14.636946 0.247182832,15.0094297 0.069179063,15.5573778 C-0.109430161,16.1060525 0.065788515,16.6939615 0.515399395,17.0549413 L0.515399395,17.0549413 Z" id="Path" fill="#F37224"></path><path d="M6.89786379,16.2765522 C7.44434746,16.2499116 7.92289909,15.9022521 8.11688687,15.3908742 L9.54370212,11.632737 L10.9703963,15.3907531 C11.1645051,15.9022521 11.6430568,16.2499116 12.1892983,16.2764311 L16.2043125,16.4722393 L13.0713251,18.9903789 C12.6447215,19.3330736 12.4618741,19.895674 12.605488,20.4233996 L13.6600695,24.3025092 L10.296646,22.1006658 C10.067784,21.9509942 9.80562195,21.8761584 9.54345994,21.8761584 C9.28117683,21.8761584 9.01889373,21.9511153 8.79015283,22.1007869 L5.42697142,24.3025092 L6.48155293,20.4236418 C6.62504576,19.8960373 6.44244054,19.3335579 6.01595804,18.9906211 L2.88272843,16.4722393 L6.89786379,16.2765522 Z" id="Path" fill="#FFFFFF"></path><path d="M30.0313305,4.52381148 L30.0313305,0.968748108 C30.0313305,0.433756965 30.4650784,0 31.0000585,0 C31.5350385,0 31.9687865,0.433756965 31.9687865,0.968748108 L31.9687865,4.52381148 C31.9687865,5.05880262 31.5350385,5.49255958 31.0000585,5.49255958 C30.4650784,5.49255958 30.0313305,5.05880262 30.0313305,4.52381148 Z" id="Path" fill="#004EDC"></path><path d="M36.9307629,10.2634018 C36.5728179,9.86585182 36.604907,9.25323974 37.0024487,8.89528731 L40.9639408,5.32811459 C41.3616036,4.97004107 41.9740819,5.00213086 42.332148,5.39980195 C42.690093,5.79735196 42.6580039,6.40996404 42.2604621,6.76791647 L38.298849,10.3350892 C38.1137008,10.501835 37.8819327,10.5839364 37.650891,10.5839364 C37.386065,10.5839364 37.1220866,10.4759209 36.9307629,10.2634018 L36.9307629,10.2634018 Z" id="Path" fill="#004EDC"></path><path d="M19.6679689,5.39980195 C20.0259139,5.00213086 20.6383922,4.97004107 21.0361762,5.32811459 L24.9977893,8.89528731 C25.395331,9.25323974 25.4274201,9.86585182 25.0694752,10.2634018 C24.8781514,10.4757999 24.614173,10.5839364 24.3492259,10.5839364 C24.1183054,10.5839364 23.8865372,10.501835 23.701268,10.3350892 L19.7396548,6.76791647 C19.341992,6.40996404 19.310024,5.79735196 19.6679689,5.39980195 Z" id="Path" fill="#004EDC"></path></g></g></g></g></g></svg> 