<?xml version="1.0" encoding="UTF-8"?> <svg xmlns="http://www.w3.org/2000/svg" xmlns:xlink="http://www.w3.org/1999/xlink" width="64px" height="63px" viewBox="0 0 64 63" version="1.1"><title>Wartości/Uczciwość Copy@1x</title><g id="Page-1" stroke="none" stroke-width="1" fill="none" fill-rule="evenodd"><g id="Usługi-_Tworzenie-aplikacji-mobilnych_08" transform="translate(-1217.000000, -656.000000)"><g id="Group-18" transform="translate(374.000000, 612.000000)"><g id="Wartości/Uczciwość-Copy" transform="translate(843.000000, 45.000000)"><g id="design-process" transform="translate(0.000000, 0.000000)" fill-rule="nonzero"><path d="M53.5475391,40.5425927 C53.1882422,40.9051811 52.602293,40.9051811 52.2429961,40.5425927 C51.8836992,40.1800044 51.8836992,39.5886873 52.2429961,39.226099 L55.1379199,36.304531 C55.3124004,36.1284521 55.5459434,36.0265052 55.7937598,36.0265052 C56.0413301,36.0265052 56.2785645,36.1285763 56.4493535,36.304531 L59.3445234,39.226099 C59.7072656,39.5886873 59.7072656,40.1800044 59.3445234,40.5425927 C58.9852266,40.9051811 58.4028457,40.9051811 58.0399805,40.5425927 L56.7179648,39.2085904 L56.7179648,47.5085109 C56.7179648,49.0889988 56.0761523,50.5286732 55.043666,51.5704938 C54.0111797,52.6124386 52.5846973,53.2600065 51.0151113,53.2600065 L41.7162129,53.2600065 C41.2069219,53.2600065 40.7917617,52.8446442 40.7917617,52.3272107 C40.7917617,51.8132542 41.2069219,51.3978918 41.7162129,51.3978918 L51.0151113,51.3978918 C52.0754062,51.3978918 53.038002,50.957943 53.7392461,50.2540001 C54.4367988,49.549933 54.8727539,48.574918 54.8727539,47.5083868 L54.8727539,39.2084663 L53.5475391,40.5425927 Z M15.2041641,50.000685 C14.8414219,49.6380966 14.8414219,49.0467796 15.2041641,48.6841912 C15.5634609,48.3216029 16.1458418,48.3216029 16.508584,48.6841912 L19.4036309,51.6057593 C19.5779883,51.7782371 19.6756875,52.0176447 19.6756875,52.267483 C19.6756875,52.5209223 19.5779883,52.7567289 19.4001855,52.9326836 L16.508707,55.8507748 C16.1459648,56.21684 15.5634609,56.21684 15.2042871,55.8507748 C14.8415449,55.4883106 14.8415449,54.9003463 15.2042871,54.5342811 L16.5261797,53.2002788 L9.45246094,53.2002788 C7.882875,53.2002788 6.45971484,52.5525867 5.42735156,51.5107661 C4.39486523,50.4688213 3.75317578,49.0291469 3.75317578,47.4451821 L3.75317578,20.6268068 C3.75317578,20.1129744 4.16476758,19.694011 4.67393555,19.694011 C5.18322656,19.694011 5.59826367,20.1129744 5.59826367,20.6268068 L5.59826367,47.4451821 C5.59826367,48.5153145 6.03077344,49.4867284 6.73189453,50.1942724 C7.42944727,50.8982153 8.39216602,51.3381641 9.45258398,51.3381641 L16.5261797,51.3381641 L15.2041641,50.000685 Z" id="Shape" fill="#004EDC"></path><path d="M31.2035801,44.7102478 L31.2035801,48.7440431 L35.5077598,48.7440431 L35.5077598,44.8299516 C35.5077598,44.477918 35.7100488,44.1400403 36.0484277,43.9850711 C37.2763125,43.4148636 38.406375,42.6721784 39.4074844,41.7816018 C40.4153613,40.8875483 41.2909629,39.8492046 42.0095566,38.6981108 C42.278168,38.2616388 42.8466445,38.1315044 43.2755859,38.4059291 C43.7082187,38.680478 43.8371719,39.2542865 43.5652383,39.6871574 C42.755959,40.9894953 41.7619863,42.1651756 40.6213418,43.1789329 C39.6341367,44.0518767 38.5390195,44.8016399 37.3530937,45.4071128 L37.3530937,49.6767148 L37.3530937,54.8581271 C37.3530937,56.8328677 36.5611641,58.6173736 35.2811074,59.9091566 C34.0010508,61.2010639 32.2327441,62 30.279375,62 C28.3260059,62 26.5576992,61.2009397 25.2776426,59.9091566 C23.9975859,58.6173736 23.2057793,56.8328677 23.2057793,54.8581271 L23.2057793,49.6767148 L23.2057793,45.4071128 C20.7014062,44.1257603 18.5842617,42.1898862 17.0774297,39.8210171 C15.5148574,37.3570306 14.608002,34.4319856 14.608002,31.2957206 C14.608002,30.9014679 14.6219062,30.5002614 14.6534062,30.0954538 C14.6813379,29.6906463 14.7266191,29.2929167 14.7859277,28.9057419 C14.8591406,28.3953863 15.330041,28.0468297 15.8323184,28.1241901 C16.338041,28.1980737 16.6833105,28.6734121 16.6100977,29.1801666 C16.5578027,29.5322001 16.5158437,29.8842337 16.4914805,30.2326662 C16.4635488,30.5740208 16.4530898,30.9296554 16.4530898,31.2957206 C16.4530898,34.0659204 17.2517871,36.6494866 18.629666,38.8178146 C20.0422441,41.0389166 22.0583672,42.8305004 24.444123,43.9534067 C24.7998516,44.0801884 25.0509902,44.4251441 25.0509902,44.8299516 L25.0509902,48.7440431 L29.3586152,48.7440431 L29.3586152,44.7102478 L22.5360352,31.2429466 L22.2639785,31.4012686 C21.8280234,31.6617858 21.2629922,31.5138945 21.0082852,31.0703446 C20.7501328,30.6303958 20.8966816,30.0600642 21.3362051,29.803148 L24.1614844,28.1346207 C24.464918,27.955065 24.8242148,27.9692208 25.1067305,28.1416987 L27.4540957,29.5284749 L29.8154883,28.1346207 C30.1189219,27.955065 30.4782187,27.9692208 30.7607344,28.1416987 L33.1080996,29.5284749 L35.4693691,28.1346207 C35.7729258,27.955065 36.1322227,27.9692208 36.4111699,28.1416987 L39.2259902,29.803148 C39.6655137,30.0600642 39.8120625,30.6302716 39.5539102,31.0703446 C39.2957578,31.5138945 38.7342949,31.6616616 38.2947715,31.4012686 L38.0261602,31.2429466 L31.2035801,44.7102478 Z" id="Path" fill="#F37224"></path><path d="M33.9764414,58.5893102 C34.7159531,57.8431481 35.2355801,56.8750869 35.4274102,55.791047 L25.134416,55.791047 C25.3228008,56.8750869 25.8424277,57.8431481 26.5819395,58.5893102 C27.5306309,59.5466925 28.8352969,60.1381337 30.279252,60.1381337 C31.7233301,60.1381337 33.0311953,59.5466925 33.9764414,58.5893102 Z" id="Path" fill="#FFFFFF"></path><path d="M24.625125,30.0074144 L24.126416,30.3030729 L30.2791289,42.4573572 L36.4354102,30.3030729 L35.9331328,30.0074144 L33.5857676,31.3943148 C33.3066973,31.5667926 32.9439551,31.5808243 32.6405215,31.4013928 L30.2791289,30.0074144 L27.9316406,31.394439 C27.6525703,31.5669168 27.2899512,31.5809485 26.9899629,31.4015169 L24.625125,30.0074144 Z" id="Path" fill="#FFFFFF"></path><polygon id="Path" fill="#FFFFFF" points="25.0507441 50.6096347 25.0507441 53.9289324 35.5076367 53.9289324 35.5076367 50.6096347"></polygon><path d="M11.6534004,0 C14.8205039,0 17.7015234,0.996000393 19.8013184,2.60479993 C21.9674355,4.26972616 23.3066777,6.5892982 23.3066777,9.16951166 C23.3066777,11.2427223 22.4416582,13.1435793 20.9766621,14.6782469 C19.5920156,16.1284761 17.6631328,17.2477814 15.427248,17.8461763 L12.392666,21.9645343 C12.0158965,22.4748898 11.2626035,22.4572571 10.9033066,21.9503784 L7.87930664,17.8461763 C5.64342187,17.2477814 3.71466211,16.1284761 2.32976953,14.6782469 C0.865019531,13.1434551 0,11.2425981 0,9.16938748 C0,6.5892982 1.33936523,4.26960198 3.50892773,2.60467576 C5.6051543,0.996124567 8.48629687,0 11.6534004,0 L11.6534004,0 Z" id="Path" fill="#004EDC"></path><path d="M18.6817148,4.0830925 C16.8958125,2.71022373 14.4124805,1.86199051 11.6534004,1.86199051 C8.89444336,1.86199051 6.41098828,2.71034791 4.62508594,4.0830925 C2.90895117,5.40306309 1.84508789,7.20172482 1.84508789,9.16938748 C1.84508789,10.7393205 2.51827734,12.1999804 3.65535352,13.3898165 C4.86219727,14.656889 6.58866797,15.6249502 8.59777734,16.117673 C8.81753906,16.1598922 9.01982813,16.283197 9.16280859,16.4767845 L11.6532773,19.855934 L14.1471914,16.4767845 C14.2692539,16.3079077 14.4540703,16.1811259 14.6703867,16.1283519 C16.6968457,15.635505 18.4374668,14.6640911 19.6512012,13.3898165 C20.7882773,12.1999804 21.4614668,10.7393205 21.4614668,9.16938748 C21.4614668,7.20172482 20.3978496,5.40306309 18.6817148,4.0830925 Z" id="Path" fill="#FFFFFF"></path><path d="M7.61783203,10.1021833 C7.10854102,10.1021833 6.69350391,9.68334405 6.69350391,9.16938748 C6.69350391,8.65543091 7.10866406,8.24019275 7.61783203,8.24019275 L15.6889687,8.24019275 C16.1982598,8.24019275 16.6132969,8.65555509 16.6132969,9.16938748 C16.6132969,9.68334405 16.1981367,10.1021833 15.6889687,10.1021833 L7.61783203,10.1021833 Z" id="Path" fill="#004EDC"></path><path d="M7.61783203,13.5553406 C7.10854102,13.5553406 6.69350391,13.1363772 6.69350391,12.6225448 C6.69350391,12.1085882 7.10866406,11.6932259 7.61783203,11.6932259 L13.6381465,11.6932259 C14.1474375,11.6932259 14.5589062,12.1085882 14.5589062,12.6225448 C14.5589062,13.1363772 14.1473145,13.5553406 13.6381465,13.5553406 L7.61783203,13.5553406 Z" id="Path" fill="#004EDC"></path><path d="M7.61783203,6.64902593 C7.10854102,6.64902593 6.69350391,6.2336636 6.69350391,5.7198312 C6.69350391,5.20239776 7.10866406,4.78703542 7.61783203,4.78703542 L15.6889687,4.78703542 C16.1982598,4.78703542 16.6132969,5.20239776 16.6132969,5.7198312 C16.6132969,6.23378777 16.1981367,6.64902593 15.6889687,6.64902593 L7.61783203,6.64902593 Z" id="Path" fill="#004EDC"></path></g><path d="M43.9372477,36.1847504 C44.3679886,34.7972697 44.6,33.3223179 44.6,31.7931769 C44.6,23.6231309 37.9768691,17 29.8068231,17 C23.8745825,17 18.7579002,20.4918199 16.4,25.532236" id="Path" stroke="#F37224" stroke-width="2.3328" stroke-linecap="round"></path><g id="p-chart-outline-64" transform="translate(52.000000, 11.000000) scale(-1, 1) translate(-52.000000, -11.000000) translate(42.000000, 1.000000)" stroke="#004EDC" stroke-width="2.3328"><path d="M11.5,3 C16.1942885,3 20,6.80571154 20,11.5 C20,16.1942885 16.1942885,20 11.5,20 C6.80571154,20 3,16.1942885 3,11.5" id="Path"></path><path d="M0,9 C0,4.02957692 4.02957692,0 9,0 L9,9 L0,9 Z" id="Path" stroke-linecap="square"></path></g></g></g></g></g></svg> 