<?xml version="1.0" encoding="UTF-8"?> <svg xmlns="http://www.w3.org/2000/svg" xmlns:xlink="http://www.w3.org/1999/xlink" width="61px" height="61px" viewBox="0 0 61 61" version="1.1"><title>Wartości/Zaangażowanie@1x</title><g id="Page-1" stroke="none" stroke-width="1" fill="none" fill-rule="evenodd"><g id="Usługi-_Tworzenie-aplikacji-mobilnych_08" transform="translate(-819.000000, -657.000000)" fill-rule="nonzero"><g id="Group-18" transform="translate(374.000000, 612.000000)"><g id="Wartości/Zaangażowanie" transform="translate(445.000000, 45.000000)"><g id="analysis" transform="translate(0.000000, 0.000000)"><path d="M1.64107021,51.4079411 C0.582726471,52.4661805 0,53.8780002 0,55.3834568 C0,56.8890325 0.582845614,58.3008523 1.64107021,59.3590916 C2.69929481,60.417331 4.11137294,61 5.61697802,61 C7.12270223,61 8.53454208,60.4172119 9.59288582,59.3590916 C10.5559155,58.396157 16.8543892,52.0983044 17.8040749,51.1487124 C18.9993135,49.9534726 19.5412932,48.3496139 19.4331117,46.7825667 L23.8359074,42.380086 C27.2172936,44.8263189 31.2221531,46.3453564 35.4177599,46.7318169 C35.907436,46.7773249 36.3442127,46.4154054 36.3894869,45.9239906 C36.4347611,45.432695 36.0730442,44.9976291 35.5815809,44.9523594 C31.2576576,44.5542241 27.193346,42.8527972 23.9574329,40.2238176 C14.0301138,32.1883224 13.1808653,17.2210795 22.2837176,8.11936326 C30.7273539,-0.323678526 44.4422163,-0.323440264 52.8858526,8.11936326 C61.3228169,16.5553763 61.3228169,30.2822288 52.8858526,38.7184801 C49.3276588,42.276323 44.6049651,44.4902508 39.587751,44.9523594 C39.0964069,44.9977482 38.7346899,45.432695 38.7799641,45.9241097 C38.8226172,46.3876479 39.2122135,46.7356291 39.6687679,46.7356291 C39.6961707,46.7356291 39.723931,46.7344378 39.7518103,46.7319361 C45.1836407,46.2315865 50.2968838,43.8344355 54.1497173,39.9822202 C63.2834276,30.8491725 63.2834276,15.98879 54.1497173,6.85586143 C45.007548,-2.28516801 30.1622605,-2.28540627 21.0200912,6.85586143 C12.7007206,15.1745306 12.0187484,28.1009429 18.6175806,37.1707321 L14.2163337,41.5715449 C12.5320147,41.4583706 10.9775612,42.0727284 9.85225927,43.1979193 C9.09618031,43.9534472 2.58491791,50.4641865 1.64107021,51.4079411 Z M19.7310873,38.5842197 C20.5667535,39.5527535 21.4050409,40.4097808 22.4179913,41.2707395 L18.9132925,44.7750927 C18.3620197,43.6034407 17.4003006,42.6391956 16.2271034,42.087858 L19.7310873,38.5842197 Z M11.1158857,44.461302 C12.6118402,42.9652568 15.0453279,42.9666863 16.5402101,44.461302 C18.0196038,45.9401924 18.0493895,48.3760609 16.5402101,49.8849723 L15.8562125,50.5689026 L10.431888,45.1452322 L11.1158857,44.461302 Z M9.16814244,46.4088532 L14.5924669,51.8325235 L10.2768835,56.1478004 L4.85255908,50.7240109 L9.16814244,46.4088532 Z M9.01313791,57.4115405 L8.32902109,58.0955898 C7.60832748,58.8162123 6.64517868,59.2131563 5.61685887,59.2131563 C4.58865821,59.2131563 3.62539027,58.8162123 2.90469666,58.0954707 C1.40909957,56.6001402 1.40909957,54.1668926 2.90469666,52.6716812 L3.58869434,51.987751 L9.01313791,57.4115405 Z" id="Shape" fill="#004EDC"></path><path d="M49,31.9797966 L49,27.2393234 C49,26.1253122 48.0669748,25.2189788 46.9203008,25.2189788 L42.059536,25.2189788 L42.059536,21.9457949 C42.059536,20.8317837 41.1265108,19.9255915 39.9798368,19.9255915 L35.1189267,19.9255915 L35.1189267,16.0202034 C35.1189267,14.9061922 34.1859016,14 33.0392276,14 L28.0796992,14 C26.9328799,14 26,14.9063333 26,16.0202034 L26,31.9797966 C26,33.0938078 26.9330252,34 28.0796992,34 L34.029768,34 L40.9703772,34 L46.9204461,34 C48.0669748,34 49,33.0938078 49,31.9797966 L49,31.9797966 Z M32.9403188,20.9837328 L32.9403188,31.8838584 L28.1784627,31.8838584 L28.1784627,16.1162827 L32.9403188,16.1162827 L32.9403188,20.9837328 Z M39.880928,26.2771202 L39.880928,31.8837173 L35.1189267,31.8837173 L35.1189267,22.0417331 L39.880928,22.0417331 L39.880928,26.2771202 Z M46.821392,31.8837173 L42.059536,31.8837173 L42.059536,27.3352615 L46.821392,27.3352615 L46.821392,31.8837173 Z" id="Shape" fill="#F37224"></path><path d="M55.0463993,21.339374 C55.1125514,21.875019 55.6020249,22.2561335 56.1394782,22.1895525 C56.6768008,22.1234926 57.0588097,21.6357964 56.9925268,21.1001513 C56.4544198,16.7502343 54.5231961,12.8098361 51.4076402,9.7048931 C43.7751754,2.09836897 31.3566174,2.09836897 23.7241525,9.7048931 C16.0919492,17.3115475 16.0919492,29.6884525 23.7241525,37.2951069 C31.3563559,44.9013704 43.7749139,44.9018916 51.4076402,37.2951069 C54.5231961,34.1899033 56.4545506,30.2495051 56.9925268,25.8997184 C57.0588097,25.3640733 56.6768008,24.8763771 56.1394782,24.8103172 C55.603463,24.743215 55.1125514,25.1248507 55.0463993,25.6604957 C54.562286,29.5736621 52.8245508,33.1190041 50.0210603,35.913062 C43.1533977,42.7578783 31.9787873,42.7578783 25.1111247,35.913062 C18.243462,29.0685062 18.243462,17.9316241 25.1111247,11.0870683 C31.9787873,4.24225201 43.153267,4.24225201 50.021191,11.0870683 C52.8245508,13.8808656 54.562286,17.4260773 55.0463993,21.339374 L55.0463993,21.339374 Z" id="Path" fill="#004EDC"></path></g></g></g></g></g></svg> 